solid 
 facet normal -1.000000e+00  0.000000e+00  0.000000e+00
   outer loop
     vertex -8.750000e+00  7.100000e+00 -8.500000e-01
     vertex -8.750000e+00  8.750000e+00  0.000000e+00
     vertex -8.750000e+00  8.750000e+00 -8.500000e-01
   endloop
 endfacet
 facet normal -1.000000e+00  0.000000e+00  0.000000e+00
   outer loop
     vertex -8.750000e+00  6.600000e+00 -8.500000e-01
     vertex -8.750000e+00  8.750000e+00  0.000000e+00
     vertex -8.750000e+00  7.100000e+00 -8.500000e-01
   endloop
 endfacet
 facet normal -1.000000e+00  0.000000e+00  0.000000e+00
   outer loop
     vertex -8.750000e+00  9.000000e-01 -8.500000e-01
     vertex -8.750000e+00  8.750000e+00  0.000000e+00
     vertex -8.750000e+00  6.600000e+00 -8.500000e-01
   endloop
 endfacet
 facet normal -1.000000e+00  0.000000e+00  0.000000e+00
   outer loop
     vertex -8.750000e+00 -8.750000e+00 -3.000000e+00
     vertex -8.750000e+00  9.000000e-01 -8.500000e-01
     vertex -8.750000e+00  9.000000e-01 -3.000000e+00
   endloop
 endfacet
 facet normal -1.000000e+00  0.000000e+00  0.000000e+00
   outer loop
     vertex -8.750000e+00 -8.750000e+00  0.000000e+00
     vertex -8.750000e+00  9.000000e-01 -8.500000e-01
     vertex -8.750000e+00 -8.750000e+00 -3.000000e+00
   endloop
 endfacet
 facet normal -1.000000e+00 -0.000000e+00  0.000000e+00
   outer loop
     vertex -8.750000e+00  8.750000e+00  0.000000e+00
     vertex -8.750000e+00  9.000000e-01 -8.500000e-01
     vertex -8.750000e+00 -8.750000e+00  0.000000e+00
   endloop
 endfacet
 facet normal  0.000000e+00  0.000000e+00  1.000000e+00
   outer loop
     vertex -3.000000e+00 -3.000000e+00  0.000000e+00
     vertex -8.750000e+00 -8.750000e+00  0.000000e+00
     vertex -3.000000e+00 -8.750000e+00  0.000000e+00
   endloop
 endfacet
 facet normal  0.000000e+00  0.000000e+00  1.000000e+00
   outer loop
     vertex -5.000000e+00 -9.750000e-01  0.000000e+00
     vertex -5.689429e+00 -6.894291e-01  0.000000e+00
     vertex -8.750000e+00 -8.750000e+00  0.000000e+00
   endloop
 endfacet
 facet normal  0.000000e+00  0.000000e+00  1.000000e+00
   outer loop
     vertex -5.000000e+00 -9.750000e-01  0.000000e+00
     vertex -8.750000e+00 -8.750000e+00  0.000000e+00
     vertex -3.000000e+00 -3.000000e+00  0.000000e+00
   endloop
 endfacet
 facet normal  0.000000e+00  0.000000e+00  1.000000e+00
   outer loop
     vertex -5.975000e+00  0.000000e+00  0.000000e+00
     vertex -8.750000e+00 -8.750000e+00  0.000000e+00
     vertex -5.689429e+00 -6.894291e-01  0.000000e+00
   endloop
 endfacet
 facet normal  0.000000e+00  0.000000e+00  1.000000e+00
   outer loop
     vertex -4.310571e+00 -6.894291e-01  0.000000e+00
     vertex -5.000000e+00 -9.750000e-01  0.000000e+00
     vertex -3.000000e+00 -3.000000e+00  0.000000e+00
   endloop
 endfacet
 facet normal  0.000000e+00  0.000000e+00  1.000000e+00
   outer loop
     vertex -4.976726e+00  1.373274e+00  0.000000e+00
     vertex -5.689429e+00  6.894291e-01  0.000000e+00
     vertex -5.000000e+00  9.750000e-01  0.000000e+00
   endloop
 endfacet
 facet normal  0.000000e+00  0.000000e+00  1.000000e+00
   outer loop
     vertex -4.976726e+00  1.373274e+00  0.000000e+00
     vertex -5.000000e+00  9.750000e-01  0.000000e+00
     vertex -4.310571e+00  6.894291e-01  0.000000e+00
   endloop
 endfacet
 facet normal  0.000000e+00  0.000000e+00  1.000000e+00
   outer loop
     vertex -3.810000e+00  8.900000e-01  0.000000e+00
     vertex -4.310571e+00  6.894291e-01  0.000000e+00
     vertex -4.025000e+00  0.000000e+00  0.000000e+00
   endloop
 endfacet
 facet normal  0.000000e+00  0.000000e+00  1.000000e+00
   outer loop
     vertex -3.810000e+00  8.900000e-01  0.000000e+00
     vertex -4.976726e+00  1.373274e+00  0.000000e+00
     vertex -4.310571e+00  6.894291e-01  0.000000e+00
   endloop
 endfacet
 facet normal  0.000000e+00  0.000000e+00  1.000000e+00
   outer loop
     vertex -5.460000e+00  2.540000e+00  0.000000e+00
     vertex -5.975000e+00  0.000000e+00  0.000000e+00
     vertex -5.689429e+00  6.894291e-01  0.000000e+00
   endloop
 endfacet
 facet normal  0.000000e+00  0.000000e+00  1.000000e+00
   outer loop
     vertex -5.460000e+00  2.540000e+00  0.000000e+00
     vertex -5.689429e+00  6.894291e-01  0.000000e+00
     vertex -4.976726e+00  1.373274e+00  0.000000e+00
   endloop
 endfacet
 facet normal  0.000000e+00  0.000000e+00  1.000000e+00
   outer loop
     vertex -1.775352e+00 -1.025000e+00  0.000000e+00
     vertex -4.310571e+00 -6.894291e-01  0.000000e+00
     vertex -3.000000e+00 -3.000000e+00  0.000000e+00
   endloop
 endfacet
 facet normal  0.000000e+00  0.000000e+00  1.000000e+00
   outer loop
     vertex -1.025000e+00 -1.775352e+00  0.000000e+00
     vertex -1.775352e+00 -1.025000e+00  0.000000e+00
     vertex -3.000000e+00 -3.000000e+00  0.000000e+00
   endloop
 endfacet
 facet normal  0.000000e+00  0.000000e+00  1.000000e+00
   outer loop
     vertex -1.776357e-15 -2.050000e+00  0.000000e+00
     vertex -1.025000e+00 -1.775352e+00  0.000000e+00
     vertex -3.000000e+00 -3.000000e+00  0.000000e+00
   endloop
 endfacet
 facet normal  0.000000e+00  0.000000e+00  1.000000e+00
   outer loop
     vertex -2.050000e+00  1.221245e-15  0.000000e+00
     vertex -4.025000e+00  0.000000e+00  0.000000e+00
     vertex -4.310571e+00 -6.894291e-01  0.000000e+00
   endloop
 endfacet
 facet normal  0.000000e+00  0.000000e+00  1.000000e+00
   outer loop
     vertex -2.050000e+00  1.221245e-15  0.000000e+00
     vertex -4.310571e+00 -6.894291e-01  0.000000e+00
     vertex -1.775352e+00 -1.025000e+00  0.000000e+00
   endloop
 endfacet
 facet normal  0.000000e+00  0.000000e+00  1.000000e+00
   outer loop
     vertex -2.050000e+00  1.221245e-15  0.000000e+00
     vertex -3.810000e+00  8.900000e-01  0.000000e+00
     vertex -4.025000e+00  0.000000e+00  0.000000e+00
   endloop
 endfacet
 facet normal  0.000000e+00  0.000000e+00  1.000000e+00
   outer loop
     vertex -2.643274e+00  1.373274e+00  0.000000e+00
     vertex -3.810000e+00  8.900000e-01  0.000000e+00
     vertex -2.050000e+00  1.221245e-15  0.000000e+00
   endloop
 endfacet
 facet normal  0.000000e+00  0.000000e+00  1.000000e+00
   outer loop
     vertex -1.775352e+00  1.025000e+00  0.000000e+00
     vertex -2.643274e+00  1.373274e+00  0.000000e+00
     vertex -2.050000e+00  1.221245e-15  0.000000e+00
   endloop
 endfacet
 facet normal  0.000000e+00  0.000000e+00  1.000000e+00
   outer loop
     vertex -8.750000e+00  8.750000e+00  0.000000e+00
     vertex -5.460000e+00  2.540000e+00  0.000000e+00
     vertex -4.976726e+00  3.706726e+00  0.000000e+00
   endloop
 endfacet
 facet normal  0.000000e+00  0.000000e+00  1.000000e+00
   outer loop
     vertex -8.750000e+00  8.750000e+00  0.000000e+00
     vertex -5.975000e+00  0.000000e+00  0.000000e+00
     vertex -5.460000e+00  2.540000e+00  0.000000e+00
   endloop
 endfacet
 facet normal  0.000000e+00  0.000000e+00  1.000000e+00
   outer loop
     vertex -8.750000e+00  8.750000e+00  0.000000e+00
     vertex -8.750000e+00 -8.750000e+00  0.000000e+00
     vertex -5.975000e+00  0.000000e+00  0.000000e+00
   endloop
 endfacet
 facet normal  0.000000e+00  0.000000e+00  1.000000e+00
   outer loop
     vertex  3.000000e+00 -3.000000e+00  0.000000e+00
     vertex  3.000000e+00 -8.750000e+00  0.000000e+00
     vertex  8.750000e+00 -8.750000e+00  0.000000e+00
   endloop
 endfacet
 facet normal  0.000000e+00  0.000000e+00  1.000000e+00
   outer loop
     vertex  3.000000e+00 -3.000000e+00  0.000000e+00
     vertex  1.025000e+00 -1.775352e+00  0.000000e+00
     vertex -1.776357e-15 -2.050000e+00  0.000000e+00
   endloop
 endfacet
 facet normal  0.000000e+00  0.000000e+00  1.000000e+00
   outer loop
     vertex -2.160000e+00  2.540000e+00  0.000000e+00
     vertex -2.643274e+00  1.373274e+00  0.000000e+00
     vertex -1.775352e+00  1.025000e+00  0.000000e+00
   endloop
 endfacet
 facet normal  0.000000e+00  0.000000e+00  1.000000e+00
   outer loop
     vertex -3.810000e+00  4.190000e+00  0.000000e+00
     vertex -8.750000e+00  8.750000e+00  0.000000e+00
     vertex -4.976726e+00  3.706726e+00  0.000000e+00
   endloop
 endfacet
 facet normal  0.000000e+00  0.000000e+00  1.000000e+00
   outer loop
     vertex  1.775352e+00 -1.025000e+00  0.000000e+00
     vertex  1.025000e+00 -1.775352e+00  0.000000e+00
     vertex  3.000000e+00 -3.000000e+00  0.000000e+00
   endloop
 endfacet
 facet normal  0.000000e+00  0.000000e+00  1.000000e+00
   outer loop
     vertex -1.025000e+00  1.775352e+00  0.000000e+00
     vertex -2.160000e+00  2.540000e+00  0.000000e+00
     vertex -1.775352e+00  1.025000e+00  0.000000e+00
   endloop
 endfacet
 facet normal  0.000000e+00  0.000000e+00  1.000000e+00
   outer loop
     vertex  6.661338e-16  2.050000e+00  0.000000e+00
     vertex -2.643274e+00  3.706726e+00  0.000000e+00
     vertex -2.160000e+00  2.540000e+00  0.000000e+00
   endloop
 endfacet
 facet normal  0.000000e+00  0.000000e+00  1.000000e+00
   outer loop
     vertex  6.661338e-16  2.050000e+00  0.000000e+00
     vertex -2.160000e+00  2.540000e+00  0.000000e+00
     vertex -1.025000e+00  1.775352e+00  0.000000e+00
   endloop
 endfacet
 facet normal  0.000000e+00  0.000000e+00  1.000000e+00
   outer loop
     vertex  4.310571e+00 -6.894291e-01  0.000000e+00
     vertex  1.775352e+00 -1.025000e+00  0.000000e+00
     vertex  3.000000e+00 -3.000000e+00  0.000000e+00
   endloop
 endfacet
 facet normal  0.000000e+00  0.000000e+00  1.000000e+00
   outer loop
     vertex  4.310571e+00 -6.894291e-01  0.000000e+00
     vertex  2.050000e+00  0.000000e+00  0.000000e+00
     vertex  1.775352e+00 -1.025000e+00  0.000000e+00
   endloop
 endfacet
 facet normal  0.000000e+00  0.000000e+00  1.000000e+00
   outer loop
     vertex  5.000000e+00 -9.750000e-01  0.000000e+00
     vertex  4.310571e+00 -6.894291e-01  0.000000e+00
     vertex  3.000000e+00 -3.000000e+00  0.000000e+00
   endloop
 endfacet
 facet normal  0.000000e+00  0.000000e+00  1.000000e+00
   outer loop
     vertex  5.000000e+00 -9.750000e-01  0.000000e+00
     vertex  3.000000e+00 -3.000000e+00  0.000000e+00
     vertex  8.750000e+00 -8.750000e+00  0.000000e+00
   endloop
 endfacet
 facet normal  0.000000e+00  0.000000e+00  1.000000e+00
   outer loop
     vertex  4.025000e+00  0.000000e+00  0.000000e+00
     vertex  2.050000e+00  0.000000e+00  0.000000e+00
     vertex  4.310571e+00 -6.894291e-01  0.000000e+00
   endloop
 endfacet
 facet normal  0.000000e+00  0.000000e+00  1.000000e+00
   outer loop
     vertex  4.310571e+00  6.894291e-01  0.000000e+00
     vertex  1.775352e+00  1.025000e+00  0.000000e+00
     vertex  2.050000e+00  0.000000e+00  0.000000e+00
   endloop
 endfacet
 facet normal  0.000000e+00  0.000000e+00  1.000000e+00
   outer loop
     vertex  4.310571e+00  6.894291e-01  0.000000e+00
     vertex  2.050000e+00  0.000000e+00  0.000000e+00
     vertex  4.025000e+00  0.000000e+00  0.000000e+00
   endloop
 endfacet
 facet normal  0.000000e+00  0.000000e+00  1.000000e+00
   outer loop
     vertex  5.689429e+00 -6.894291e-01  0.000000e+00
     vertex  5.000000e+00 -9.750000e-01  0.000000e+00
     vertex  8.750000e+00 -8.750000e+00  0.000000e+00
   endloop
 endfacet
 facet normal  0.000000e+00  0.000000e+00  1.000000e+00
   outer loop
     vertex  1.373274e+00  3.913274e+00  0.000000e+00
     vertex  6.661338e-16  2.050000e+00  0.000000e+00
     vertex  1.025000e+00  1.775352e+00  0.000000e+00
   endloop
 endfacet
 facet normal  0.000000e+00  0.000000e+00  1.000000e+00
   outer loop
     vertex  2.540000e+00  3.430000e+00  0.000000e+00
     vertex  1.025000e+00  1.775352e+00  0.000000e+00
     vertex  1.775352e+00  1.025000e+00  0.000000e+00
   endloop
 endfacet
 facet normal  0.000000e+00  0.000000e+00  1.000000e+00
   outer loop
     vertex  2.540000e+00  3.430000e+00  0.000000e+00
     vertex  1.373274e+00  3.913274e+00  0.000000e+00
     vertex  1.025000e+00  1.775352e+00  0.000000e+00
   endloop
 endfacet
 facet normal  0.000000e+00  0.000000e+00  1.000000e+00
   outer loop
     vertex  2.540000e+00  3.430000e+00  0.000000e+00
     vertex  1.775352e+00  1.025000e+00  0.000000e+00
     vertex  4.310571e+00  6.894291e-01  0.000000e+00
   endloop
 endfacet
 facet normal  0.000000e+00  0.000000e+00  1.000000e+00
   outer loop
     vertex  8.900000e-01  5.080000e+00  0.000000e+00
     vertex  6.661338e-16  2.050000e+00  0.000000e+00
     vertex  1.373274e+00  3.913274e+00  0.000000e+00
   endloop
 endfacet
 facet normal  0.000000e+00  0.000000e+00  1.000000e+00
   outer loop
     vertex  8.900000e-01  5.080000e+00  0.000000e+00
     vertex -2.643274e+00  3.706726e+00  0.000000e+00
     vertex  6.661338e-16  2.050000e+00  0.000000e+00
   endloop
 endfacet
 facet normal  0.000000e+00  0.000000e+00  1.000000e+00
   outer loop
     vertex  5.975000e+00  0.000000e+00  0.000000e+00
     vertex  5.689429e+00 -6.894291e-01  0.000000e+00
     vertex  8.750000e+00 -8.750000e+00  0.000000e+00
   endloop
 endfacet
 facet normal  0.000000e+00  0.000000e+00  1.000000e+00
   outer loop
     vertex  1.373274e+00  6.246726e+00  0.000000e+00
     vertex -8.750000e+00  8.750000e+00  0.000000e+00
     vertex -3.810000e+00  4.190000e+00  0.000000e+00
   endloop
 endfacet
 facet normal  0.000000e+00  0.000000e+00  1.000000e+00
   outer loop
     vertex  1.373274e+00  6.246726e+00  0.000000e+00
     vertex -3.810000e+00  4.190000e+00  0.000000e+00
     vertex -2.643274e+00  3.706726e+00  0.000000e+00
   endloop
 endfacet
 facet normal  0.000000e+00  0.000000e+00  1.000000e+00
   outer loop
     vertex  1.373274e+00  6.246726e+00  0.000000e+00
     vertex -2.643274e+00  3.706726e+00  0.000000e+00
     vertex  8.900000e-01  5.080000e+00  0.000000e+00
   endloop
 endfacet
 facet normal  0.000000e+00  0.000000e+00  1.000000e+00
   outer loop
     vertex  3.706726e+00  3.913274e+00  0.000000e+00
     vertex  5.000000e+00  9.750000e-01  0.000000e+00
     vertex  5.689429e+00  6.894291e-01  0.000000e+00
   endloop
 endfacet
 facet normal  0.000000e+00  0.000000e+00  1.000000e+00
   outer loop
     vertex  3.706726e+00  3.913274e+00  0.000000e+00
     vertex  2.540000e+00  3.430000e+00  0.000000e+00
     vertex  4.310571e+00  6.894291e-01  0.000000e+00
   endloop
 endfacet
 facet normal  0.000000e+00  0.000000e+00  1.000000e+00
   outer loop
     vertex  3.706726e+00  3.913274e+00  0.000000e+00
     vertex  4.310571e+00  6.894291e-01  0.000000e+00
     vertex  5.000000e+00  9.750000e-01  0.000000e+00
   endloop
 endfacet
 facet normal  0.000000e+00  0.000000e+00  1.000000e+00
   outer loop
     vertex  2.540000e+00  6.730000e+00  0.000000e+00
     vertex -8.750000e+00  8.750000e+00  0.000000e+00
     vertex  1.373274e+00  6.246726e+00  0.000000e+00
   endloop
 endfacet
 facet normal  0.000000e+00  0.000000e+00  1.000000e+00
   outer loop
     vertex  4.190000e+00  5.080000e+00  0.000000e+00
     vertex  3.706726e+00  3.913274e+00  0.000000e+00
     vertex  5.689429e+00  6.894291e-01  0.000000e+00
   endloop
 endfacet
 facet normal  0.000000e+00  0.000000e+00  1.000000e+00
   outer loop
     vertex  8.750000e+00  8.750000e+00  0.000000e+00
     vertex  5.689429e+00  6.894291e-01  0.000000e+00
     vertex  5.975000e+00  0.000000e+00  0.000000e+00
   endloop
 endfacet
 facet normal  0.000000e+00  0.000000e+00  1.000000e+00
   outer loop
     vertex  8.750000e+00  8.750000e+00  0.000000e+00
     vertex  5.975000e+00  0.000000e+00  0.000000e+00
     vertex  8.750000e+00 -8.750000e+00  0.000000e+00
   endloop
 endfacet
 facet normal  0.000000e+00  0.000000e+00  1.000000e+00
   outer loop
     vertex  8.750000e+00  8.750000e+00  0.000000e+00
     vertex  4.190000e+00  5.080000e+00  0.000000e+00
     vertex  5.689429e+00  6.894291e-01  0.000000e+00
   endloop
 endfacet
 facet normal  0.000000e+00  0.000000e+00  1.000000e+00
   outer loop
     vertex  8.750000e+00  8.750000e+00  0.000000e+00
     vertex  2.540000e+00  6.730000e+00  0.000000e+00
     vertex  3.706726e+00  6.246726e+00  0.000000e+00
   endloop
 endfacet
 facet normal  0.000000e+00  0.000000e+00  1.000000e+00
   outer loop
     vertex  8.750000e+00  8.750000e+00  0.000000e+00
     vertex  3.706726e+00  6.246726e+00  0.000000e+00
     vertex  4.190000e+00  5.080000e+00  0.000000e+00
   endloop
 endfacet
 facet normal  0.000000e+00  0.000000e+00  1.000000e+00
   outer loop
     vertex  8.750000e+00  8.750000e+00  0.000000e+00
     vertex -8.750000e+00  8.750000e+00  0.000000e+00
     vertex  2.540000e+00  6.730000e+00  0.000000e+00
   endloop
 endfacet
 facet normal  0.000000e+00  0.000000e+00  1.000000e+00
   outer loop
     vertex -3.000000e+00 -3.000000e+00  0.000000e+00
     vertex  3.000000e+00 -3.000000e+00  0.000000e+00
     vertex -1.776357e-15 -2.050000e+00  0.000000e+00
   endloop
 endfacet
 facet normal  0.000000e+00  1.000000e+00  0.000000e+00
   outer loop
     vertex -4.375000e+00  8.750000e+00 -8.500000e-01
     vertex -8.750000e+00  8.750000e+00 -8.500000e-01
     vertex -8.750000e+00  8.750000e+00  0.000000e+00
   endloop
 endfacet
 facet normal  0.000000e+00  1.000000e+00  0.000000e+00
   outer loop
     vertex  4.375000e+00  8.750000e+00 -8.500000e-01
     vertex  4.375000e+00  8.750000e+00 -3.000000e+00
     vertex -4.375000e+00  8.750000e+00 -3.000000e+00
   endloop
 endfacet
 facet normal  0.000000e+00  1.000000e+00  0.000000e+00
   outer loop
     vertex  4.375000e+00  8.750000e+00 -8.500000e-01
     vertex -4.375000e+00  8.750000e+00 -3.000000e+00
     vertex -4.375000e+00  8.750000e+00 -8.500000e-01
   endloop
 endfacet
 facet normal  0.000000e+00  1.000000e+00  0.000000e+00
   outer loop
     vertex  8.750000e+00  8.750000e+00  0.000000e+00
     vertex  8.750000e+00  8.750000e+00 -8.500000e-01
     vertex  4.375000e+00  8.750000e+00 -8.500000e-01
   endloop
 endfacet
 facet normal -0.000000e+00  1.000000e+00  0.000000e+00
   outer loop
     vertex -8.750000e+00  8.750000e+00  0.000000e+00
     vertex  8.750000e+00  8.750000e+00  0.000000e+00
     vertex  4.375000e+00  8.750000e+00 -8.500000e-01
   endloop
 endfacet
 facet normal  0.000000e+00  1.000000e+00  0.000000e+00
   outer loop
     vertex -8.750000e+00  8.750000e+00  0.000000e+00
     vertex  4.375000e+00  8.750000e+00 -8.500000e-01
     vertex -4.375000e+00  8.750000e+00 -8.500000e-01
   endloop
 endfacet
 facet normal  0.000000e+00  0.000000e+00 -1.000000e+00
   outer loop
     vertex -8.750000e+00  8.750000e+00 -8.500000e-01
     vertex -8.740000e+00  7.100000e+00 -8.500000e-01
     vertex -8.750000e+00  7.100000e+00 -8.500000e-01
   endloop
 endfacet
 facet normal  0.000000e+00 -0.000000e+00 -1.000000e+00
   outer loop
     vertex -4.375000e+00  8.750000e+00 -8.500000e-01
     vertex -4.375000e+00  7.100000e+00 -8.500000e-01
     vertex -8.740000e+00  7.100000e+00 -8.500000e-01
   endloop
 endfacet
 facet normal -0.000000e+00  0.000000e+00 -1.000000e+00
   outer loop
     vertex -4.375000e+00  8.750000e+00 -8.500000e-01
     vertex -8.740000e+00  7.100000e+00 -8.500000e-01
     vertex -8.750000e+00  8.750000e+00 -8.500000e-01
   endloop
 endfacet
 facet normal -0.000000e+00  0.000000e+00 -1.000000e+00
   outer loop
     vertex -8.740000e+00  7.100000e+00 -8.500000e-01
     vertex -8.750000e+00  6.600000e+00 -8.500000e-01
     vertex -8.750000e+00  7.100000e+00 -8.500000e-01
   endloop
 endfacet
 facet normal  0.000000e+00 -0.000000e+00 -1.000000e+00
   outer loop
     vertex -8.740000e+00  7.100000e+00 -8.500000e-01
     vertex -8.740000e+00  6.600000e+00 -8.500000e-01
     vertex -8.750000e+00  6.600000e+00 -8.500000e-01
   endloop
 endfacet
 facet normal  0.000000e+00  0.000000e+00 -1.000000e+00
   outer loop
     vertex -4.976726e+00  1.373274e+00 -8.500000e-01
     vertex -5.000000e+00  9.750000e-01 -8.500000e-01
     vertex -5.181066e+00  9.000000e-01 -8.500000e-01
   endloop
 endfacet
 facet normal  0.000000e+00 -0.000000e+00 -1.000000e+00
   outer loop
     vertex -4.976726e+00  1.373274e+00 -8.500000e-01
     vertex -4.818934e+00  9.000000e-01 -8.500000e-01
     vertex -5.000000e+00  9.750000e-01 -8.500000e-01
   endloop
 endfacet
 facet normal  0.000000e+00  0.000000e+00 -1.000000e+00
   outer loop
     vertex -3.834142e+00  9.000000e-01 -8.500000e-01
     vertex -4.818934e+00  9.000000e-01 -8.500000e-01
     vertex -4.976726e+00  1.373274e+00 -8.500000e-01
   endloop
 endfacet
 facet normal  0.000000e+00 -0.000000e+00 -1.000000e+00
   outer loop
     vertex -5.460000e+00  2.540000e+00 -8.500000e-01
     vertex -5.181066e+00  9.000000e-01 -8.500000e-01
     vertex -8.750000e+00  9.000000e-01 -8.500000e-01
   endloop
 endfacet
 facet normal -0.000000e+00  0.000000e+00 -1.000000e+00
   outer loop
     vertex -5.460000e+00  2.540000e+00 -8.500000e-01
     vertex -8.750000e+00  9.000000e-01 -8.500000e-01
     vertex -8.740000e+00  2.800000e+00 -8.500000e-01
   endloop
 endfacet
 facet normal  0.000000e+00  0.000000e+00 -1.000000e+00
   outer loop
     vertex -5.460000e+00  2.540000e+00 -8.500000e-01
     vertex -4.976726e+00  1.373274e+00 -8.500000e-01
     vertex -5.181066e+00  9.000000e-01 -8.500000e-01
   endloop
 endfacet
 facet normal -0.000000e+00  0.000000e+00 -1.000000e+00
   outer loop
     vertex -5.352304e+00  2.800000e+00 -8.500000e-01
     vertex -5.460000e+00  2.540000e+00 -8.500000e-01
     vertex -8.740000e+00  2.800000e+00 -8.500000e-01
   endloop
 endfacet
 facet normal -0.000000e+00 -0.000000e+00 -1.000000e+00
   outer loop
     vertex -8.740000e+00  6.600000e+00 -8.500000e-01
     vertex -8.740000e+00  2.800000e+00 -8.500000e-01
     vertex -8.750000e+00  6.600000e+00 -8.500000e-01
   endloop
 endfacet
 facet normal  0.000000e+00  0.000000e+00 -1.000000e+00
   outer loop
     vertex -8.750000e+00  6.600000e+00 -8.500000e-01
     vertex -8.740000e+00  2.800000e+00 -8.500000e-01
     vertex -8.750000e+00  9.000000e-01 -8.500000e-01
   endloop
 endfacet
 facet normal  0.000000e+00  1.000000e+00  0.000000e+00
   outer loop
     vertex -5.181066e+00  9.000000e-01 -8.500000e-01
     vertex -5.181066e+00  9.000000e-01 -3.000000e+00
     vertex -8.750000e+00  9.000000e-01 -3.000000e+00
   endloop
 endfacet
 facet normal  0.000000e+00  1.000000e+00  0.000000e+00
   outer loop
     vertex -5.181066e+00  9.000000e-01 -8.500000e-01
     vertex -8.750000e+00  9.000000e-01 -3.000000e+00
     vertex -8.750000e+00  9.000000e-01 -8.500000e-01
   endloop
 endfacet
 facet normal -0.000000e+00  0.000000e+00 -1.000000e+00
   outer loop
     vertex -5.689429e+00 -6.894291e-01 -3.000000e+00
     vertex -8.750000e+00 -8.750000e+00 -3.000000e+00
     vertex -8.750000e+00  9.000000e-01 -3.000000e+00
   endloop
 endfacet
 facet normal  0.000000e+00 -0.000000e+00 -1.000000e+00
   outer loop
     vertex -3.000000e+00 -3.000000e+00 -3.000000e+00
     vertex -3.000000e+00 -8.750000e+00 -3.000000e+00
     vertex -8.750000e+00 -8.750000e+00 -3.000000e+00
   endloop
 endfacet
 facet normal -0.000000e+00  0.000000e+00 -1.000000e+00
   outer loop
     vertex -5.000000e+00 -9.750000e-01 -3.000000e+00
     vertex -8.750000e+00 -8.750000e+00 -3.000000e+00
     vertex -5.689429e+00 -6.894291e-01 -3.000000e+00
   endloop
 endfacet
 facet normal  0.000000e+00 -0.000000e+00 -1.000000e+00
   outer loop
     vertex -5.000000e+00 -9.750000e-01 -3.000000e+00
     vertex -3.000000e+00 -3.000000e+00 -3.000000e+00
     vertex -8.750000e+00 -8.750000e+00 -3.000000e+00
   endloop
 endfacet
 facet normal -0.000000e+00 -0.000000e+00 -1.000000e+00
   outer loop
     vertex -5.975000e+00  0.000000e+00 -3.000000e+00
     vertex -5.689429e+00 -6.894291e-01 -3.000000e+00
     vertex -8.750000e+00  9.000000e-01 -3.000000e+00
   endloop
 endfacet
 facet normal -0.000000e+00  0.000000e+00 -1.000000e+00
   outer loop
     vertex -5.689429e+00  6.894291e-01 -3.000000e+00
     vertex -5.975000e+00  0.000000e+00 -3.000000e+00
     vertex -8.750000e+00  9.000000e-01 -3.000000e+00
   endloop
 endfacet
 facet normal  0.000000e+00 -0.000000e+00 -1.000000e+00
   outer loop
     vertex -4.310571e+00 -6.894291e-01 -3.000000e+00
     vertex -3.000000e+00 -3.000000e+00 -3.000000e+00
     vertex -5.000000e+00 -9.750000e-01 -3.000000e+00
   endloop
 endfacet
 facet normal -0.000000e+00  0.000000e+00 -1.000000e+00
   outer loop
     vertex -5.181066e+00  9.000000e-01 -3.000000e+00
     vertex -5.689429e+00  6.894291e-01 -3.000000e+00
     vertex -8.750000e+00  9.000000e-01 -3.000000e+00
   endloop
 endfacet
 facet normal -0.000000e+00  0.000000e+00 -1.000000e+00
   outer loop
     vertex -3.834142e+00  9.000000e-01 -3.000000e+00
     vertex -4.310571e+00  6.894291e-01 -3.000000e+00
     vertex -4.818934e+00  9.000000e-01 -3.000000e+00
   endloop
 endfacet
 facet normal  0.000000e+00  0.000000e+00 -1.000000e+00
   outer loop
     vertex -3.810000e+00  8.900000e-01 -3.000000e+00
     vertex -4.025000e+00  0.000000e+00 -3.000000e+00
     vertex -4.310571e+00  6.894291e-01 -3.000000e+00
   endloop
 endfacet
 facet normal -0.000000e+00  0.000000e+00 -1.000000e+00
   outer loop
     vertex -3.810000e+00  8.900000e-01 -3.000000e+00
     vertex -4.310571e+00  6.894291e-01 -3.000000e+00
     vertex -3.834142e+00  9.000000e-01 -3.000000e+00
   endloop
 endfacet
 facet normal  0.000000e+00  0.000000e+00 -1.000000e+00
   outer loop
     vertex -3.785858e+00  9.000000e-01 -3.000000e+00
     vertex -4.025000e+00  0.000000e+00 -3.000000e+00
     vertex -3.810000e+00  8.900000e-01 -3.000000e+00
   endloop
 endfacet
 facet normal -0.000000e+00  0.000000e+00 -1.000000e+00
   outer loop
     vertex -1.775352e+00 -1.025000e+00 -3.000000e+00
     vertex -3.000000e+00 -3.000000e+00 -3.000000e+00
     vertex -4.310571e+00 -6.894291e-01 -3.000000e+00
   endloop
 endfacet
 facet normal -0.000000e+00  0.000000e+00 -1.000000e+00
   outer loop
     vertex -1.025000e+00 -1.775352e+00 -3.000000e+00
     vertex -3.000000e+00 -3.000000e+00 -3.000000e+00
     vertex -1.775352e+00 -1.025000e+00 -3.000000e+00
   endloop
 endfacet
 facet normal -0.000000e+00  0.000000e+00 -1.000000e+00
   outer loop
     vertex -1.776357e-15 -2.050000e+00 -3.000000e+00
     vertex -3.000000e+00 -3.000000e+00 -3.000000e+00
     vertex -1.025000e+00 -1.775352e+00 -3.000000e+00
   endloop
 endfacet
 facet normal  0.000000e+00  0.000000e+00 -1.000000e+00
   outer loop
     vertex -2.050000e+00  1.221245e-15 -3.000000e+00
     vertex -4.310571e+00 -6.894291e-01 -3.000000e+00
     vertex -4.025000e+00  0.000000e+00 -3.000000e+00
   endloop
 endfacet
 facet normal  0.000000e+00 -0.000000e+00 -1.000000e+00
   outer loop
     vertex -2.050000e+00  1.221245e-15 -3.000000e+00
     vertex -1.775352e+00 -1.025000e+00 -3.000000e+00
     vertex -4.310571e+00 -6.894291e-01 -3.000000e+00
   endloop
 endfacet
 facet normal -0.000000e+00  0.000000e+00 -1.000000e+00
   outer loop
     vertex -2.050000e+00  1.221245e-15 -3.000000e+00
     vertex -4.025000e+00  0.000000e+00 -3.000000e+00
     vertex -3.785858e+00  9.000000e-01 -3.000000e+00
   endloop
 endfacet
 facet normal -0.000000e+00  0.000000e+00 -1.000000e+00
   outer loop
     vertex -1.808846e+00  9.000000e-01 -3.000000e+00
     vertex -2.050000e+00  1.221245e-15 -3.000000e+00
     vertex -3.785858e+00  9.000000e-01 -3.000000e+00
   endloop
 endfacet
 facet normal  0.000000e+00  0.000000e+00 -1.000000e+00
   outer loop
     vertex  3.000000e+00 -3.000000e+00 -3.000000e+00
     vertex  8.750000e+00 -8.750000e+00 -3.000000e+00
     vertex  3.000000e+00 -8.750000e+00 -3.000000e+00
   endloop
 endfacet
 facet normal  0.000000e+00  0.000000e+00 -1.000000e+00
   outer loop
     vertex  3.000000e+00 -3.000000e+00 -3.000000e+00
     vertex -1.776357e-15 -2.050000e+00 -3.000000e+00
     vertex  1.025000e+00 -1.775352e+00 -3.000000e+00
   endloop
 endfacet
 facet normal  0.000000e+00 -0.000000e+00 -1.000000e+00
   outer loop
     vertex  1.775352e+00 -1.025000e+00 -3.000000e+00
     vertex  3.000000e+00 -3.000000e+00 -3.000000e+00
     vertex  1.025000e+00 -1.775352e+00 -3.000000e+00
   endloop
 endfacet
 facet normal -0.000000e+00  0.000000e+00 -1.000000e+00
   outer loop
     vertex  4.310571e+00 -6.894291e-01 -3.000000e+00
     vertex  1.775352e+00 -1.025000e+00 -3.000000e+00
     vertex  2.050000e+00  0.000000e+00 -3.000000e+00
   endloop
 endfacet
 facet normal  0.000000e+00  0.000000e+00 -1.000000e+00
   outer loop
     vertex  4.310571e+00 -6.894291e-01 -3.000000e+00
     vertex  3.000000e+00 -3.000000e+00 -3.000000e+00
     vertex  1.775352e+00 -1.025000e+00 -3.000000e+00
   endloop
 endfacet
 facet normal -0.000000e+00  0.000000e+00 -1.000000e+00
   outer loop
     vertex  5.000000e+00 -9.750000e-01 -3.000000e+00
     vertex  3.000000e+00 -3.000000e+00 -3.000000e+00
     vertex  4.310571e+00 -6.894291e-01 -3.000000e+00
   endloop
 endfacet
 facet normal  0.000000e+00 -0.000000e+00 -1.000000e+00
   outer loop
     vertex  5.000000e+00 -9.750000e-01 -3.000000e+00
     vertex  8.750000e+00 -8.750000e+00 -3.000000e+00
     vertex  3.000000e+00 -3.000000e+00 -3.000000e+00
   endloop
 endfacet
 facet normal  0.000000e+00  0.000000e+00 -1.000000e+00
   outer loop
     vertex  4.025000e+00  0.000000e+00 -3.000000e+00
     vertex  2.050000e+00  0.000000e+00 -3.000000e+00
     vertex  1.798610e+00  9.382003e-01 -3.000000e+00
   endloop
 endfacet
 facet normal -0.000000e+00 -0.000000e+00 -1.000000e+00
   outer loop
     vertex  4.025000e+00  0.000000e+00 -3.000000e+00
     vertex  4.310571e+00 -6.894291e-01 -3.000000e+00
     vertex  2.050000e+00  0.000000e+00 -3.000000e+00
   endloop
 endfacet
 facet normal -0.000000e+00  0.000000e+00 -1.000000e+00
   outer loop
     vertex  4.310571e+00  6.894291e-01 -3.000000e+00
     vertex  4.025000e+00  0.000000e+00 -3.000000e+00
     vertex  1.798610e+00  9.382003e-01 -3.000000e+00
   endloop
 endfacet
 facet normal  0.000000e+00  0.000000e+00 -1.000000e+00
   outer loop
     vertex  4.310571e+00  6.894291e-01 -3.000000e+00
     vertex  1.798610e+00  9.382003e-01 -3.000000e+00
     vertex  1.798610e+00  2.800000e+00 -3.000000e+00
   endloop
 endfacet
 facet normal  0.000000e+00 -0.000000e+00 -1.000000e+00
   outer loop
     vertex  5.689429e+00 -6.894291e-01 -3.000000e+00
     vertex  8.750000e+00 -8.750000e+00 -3.000000e+00
     vertex  5.000000e+00 -9.750000e-01 -3.000000e+00
   endloop
 endfacet
 facet normal -0.000000e+00  0.000000e+00 -1.000000e+00
   outer loop
     vertex  5.000000e+00  9.750000e-01 -3.000000e+00
     vertex  4.310571e+00  6.894291e-01 -3.000000e+00
     vertex  1.798610e+00  2.800000e+00 -3.000000e+00
   endloop
 endfacet
 facet normal  0.000000e+00  0.000000e+00 -1.000000e+00
   outer loop
     vertex  8.750000e+00  2.800000e+00 -3.000000e+00
     vertex  5.689429e+00  6.894291e-01 -3.000000e+00
     vertex  5.000000e+00  9.750000e-01 -3.000000e+00
   endloop
 endfacet
 facet normal  0.000000e+00  0.000000e+00 -1.000000e+00
   outer loop
     vertex  8.750000e+00  2.800000e+00 -3.000000e+00
     vertex  5.975000e+00  0.000000e+00 -3.000000e+00
     vertex  5.689429e+00  6.894291e-01 -3.000000e+00
   endloop
 endfacet
 facet normal  0.000000e+00  0.000000e+00 -1.000000e+00
   outer loop
     vertex  8.750000e+00  2.800000e+00 -3.000000e+00
     vertex  5.689429e+00 -6.894291e-01 -3.000000e+00
     vertex  5.975000e+00  0.000000e+00 -3.000000e+00
   endloop
 endfacet
 facet normal  0.000000e+00 -0.000000e+00 -1.000000e+00
   outer loop
     vertex  8.750000e+00  2.800000e+00 -3.000000e+00
     vertex  8.750000e+00 -8.750000e+00 -3.000000e+00
     vertex  5.689429e+00 -6.894291e-01 -3.000000e+00
   endloop
 endfacet
 facet normal -0.000000e+00  0.000000e+00 -1.000000e+00
   outer loop
     vertex  8.750000e+00  2.800000e+00 -3.000000e+00
     vertex  5.000000e+00  9.750000e-01 -3.000000e+00
     vertex  1.798610e+00  2.800000e+00 -3.000000e+00
   endloop
 endfacet
 facet normal  0.000000e+00  0.000000e+00 -1.000000e+00
   outer loop
     vertex -3.000000e+00 -3.000000e+00 -3.000000e+00
     vertex -1.776357e-15 -2.050000e+00 -3.000000e+00
     vertex  3.000000e+00 -3.000000e+00 -3.000000e+00
   endloop
 endfacet
 facet normal  0.000000e+00 -1.000000e+00 -0.000000e+00
   outer loop
     vertex -3.000000e+00 -8.750000e+00  0.000000e+00
     vertex -8.750000e+00 -8.750000e+00 -3.000000e+00
     vertex -3.000000e+00 -8.750000e+00 -3.000000e+00
   endloop
 endfacet
 facet normal -0.000000e+00 -1.000000e+00  0.000000e+00
   outer loop
     vertex -3.000000e+00 -8.750000e+00  0.000000e+00
     vertex -8.750000e+00 -8.750000e+00  0.000000e+00
     vertex -8.750000e+00 -8.750000e+00 -3.000000e+00
   endloop
 endfacet
 facet normal  1.000000e+00  0.000000e+00  0.000000e+00
   outer loop
     vertex  8.750000e+00  7.100000e+00 -8.500000e-01
     vertex  8.750000e+00  8.750000e+00 -8.500000e-01
     vertex  8.750000e+00  8.750000e+00  0.000000e+00
   endloop
 endfacet
 facet normal  1.000000e+00  0.000000e+00  0.000000e+00
   outer loop
     vertex  8.750000e+00  6.600000e+00 -8.500000e-01
     vertex  8.750000e+00  7.100000e+00 -8.500000e-01
     vertex  8.750000e+00  8.750000e+00  0.000000e+00
   endloop
 endfacet
 facet normal  1.000000e+00  0.000000e+00  0.000000e+00
   outer loop
     vertex  8.750000e+00  2.800000e+00 -8.500000e-01
     vertex  8.750000e+00  6.600000e+00 -8.500000e-01
     vertex  8.750000e+00  8.750000e+00  0.000000e+00
   endloop
 endfacet
 facet normal  1.000000e+00  0.000000e+00  0.000000e+00
   outer loop
     vertex  8.750000e+00 -8.750000e+00 -3.000000e+00
     vertex  8.750000e+00  2.800000e+00 -3.000000e+00
     vertex  8.750000e+00  2.800000e+00 -8.500000e-01
   endloop
 endfacet
 facet normal  1.000000e+00  0.000000e+00  0.000000e+00
   outer loop
     vertex  8.750000e+00 -8.750000e+00  0.000000e+00
     vertex  8.750000e+00 -8.750000e+00 -3.000000e+00
     vertex  8.750000e+00  2.800000e+00 -8.500000e-01
   endloop
 endfacet
 facet normal  1.000000e+00  0.000000e+00  0.000000e+00
   outer loop
     vertex  8.750000e+00  8.750000e+00  0.000000e+00
     vertex  8.750000e+00 -8.750000e+00  0.000000e+00
     vertex  8.750000e+00  2.800000e+00 -8.500000e-01
   endloop
 endfacet
 facet normal  0.000000e+00 -1.000000e+00 -0.000000e+00
   outer loop
     vertex  8.750000e+00 -8.750000e+00  0.000000e+00
     vertex  3.000000e+00 -8.750000e+00 -3.000000e+00
     vertex  8.750000e+00 -8.750000e+00 -3.000000e+00
   endloop
 endfacet
 facet normal -0.000000e+00 -1.000000e+00  0.000000e+00
   outer loop
     vertex  8.750000e+00 -8.750000e+00  0.000000e+00
     vertex  3.000000e+00 -8.750000e+00  0.000000e+00
     vertex  3.000000e+00 -8.750000e+00 -3.000000e+00
   endloop
 endfacet
 facet normal -1.000000e+00  0.000000e+00  0.000000e+00
   outer loop
     vertex  3.000000e+00 -8.750000e+00  0.000000e+00
     vertex  3.000000e+00 -3.000000e+00  0.000000e+00
     vertex  3.000000e+00 -3.000000e+00 -3.000000e+00
   endloop
 endfacet
 facet normal -1.000000e+00  0.000000e+00  0.000000e+00
   outer loop
     vertex  3.000000e+00 -8.750000e+00  0.000000e+00
     vertex  3.000000e+00 -3.000000e+00 -3.000000e+00
     vertex  3.000000e+00 -8.750000e+00 -3.000000e+00
   endloop
 endfacet
 facet normal  0.000000e+00 -1.000000e+00 -0.000000e+00
   outer loop
     vertex  3.000000e+00 -3.000000e+00  0.000000e+00
     vertex -3.000000e+00 -3.000000e+00 -3.000000e+00
     vertex  3.000000e+00 -3.000000e+00 -3.000000e+00
   endloop
 endfacet
 facet normal -0.000000e+00 -1.000000e+00  0.000000e+00
   outer loop
     vertex  3.000000e+00 -3.000000e+00  0.000000e+00
     vertex -3.000000e+00 -3.000000e+00  0.000000e+00
     vertex -3.000000e+00 -3.000000e+00 -3.000000e+00
   endloop
 endfacet
 facet normal  1.000000e+00 -0.000000e+00  0.000000e+00
   outer loop
     vertex -3.000000e+00 -8.750000e+00  0.000000e+00
     vertex -3.000000e+00 -3.000000e+00 -3.000000e+00
     vertex -3.000000e+00 -3.000000e+00  0.000000e+00
   endloop
 endfacet
 facet normal  1.000000e+00  0.000000e+00  0.000000e+00
   outer loop
     vertex -3.000000e+00 -8.750000e+00  0.000000e+00
     vertex -3.000000e+00 -8.750000e+00 -3.000000e+00
     vertex -3.000000e+00 -3.000000e+00 -3.000000e+00
   endloop
 endfacet
 facet normal  3.826834e-01 -9.238795e-01  0.000000e+00
   outer loop
     vertex -5.181066e+00  9.000000e-01 -8.500000e-01
     vertex -5.000000e+00  9.750000e-01 -8.500000e-01
     vertex -5.000000e+00  9.750000e-01  0.000000e+00
   endloop
 endfacet
 facet normal  3.826834e-01 -9.238795e-01  3.884613e-14
   outer loop
     vertex -5.181066e+00  9.000000e-01 -8.500000e-01
     vertex -5.000000e+00  9.750000e-01  0.000000e+00
     vertex -5.689429e+00  6.894291e-01  0.000000e+00
   endloop
 endfacet
 facet normal  3.826834e-01 -9.238795e-01  0.000000e+00
   outer loop
     vertex -5.689429e+00  6.894291e-01 -3.000000e+00
     vertex -5.181066e+00  9.000000e-01 -3.000000e+00
     vertex -5.181066e+00  9.000000e-01 -8.500000e-01
   endloop
 endfacet
 facet normal  3.826834e-01 -9.238795e-01  0.000000e+00
   outer loop
     vertex -5.689429e+00  6.894291e-01 -3.000000e+00
     vertex -5.181066e+00  9.000000e-01 -8.500000e-01
     vertex -5.689429e+00  6.894291e-01  0.000000e+00
   endloop
 endfacet
 facet normal  9.238795e-01 -3.826834e-01  0.000000e+00
   outer loop
     vertex -5.975000e+00  0.000000e+00 -3.000000e+00
     vertex -5.689429e+00  6.894291e-01 -3.000000e+00
     vertex -5.689429e+00  6.894291e-01  0.000000e+00
   endloop
 endfacet
 facet normal  9.238795e-01 -3.826834e-01  0.000000e+00
   outer loop
     vertex -5.975000e+00  0.000000e+00 -3.000000e+00
     vertex -5.689429e+00  6.894291e-01  0.000000e+00
     vertex -5.975000e+00  0.000000e+00  0.000000e+00
   endloop
 endfacet
 facet normal  9.238795e-01  3.826834e-01  0.000000e+00
   outer loop
     vertex -5.689429e+00 -6.894291e-01 -3.000000e+00
     vertex -5.975000e+00  0.000000e+00 -3.000000e+00
     vertex -5.975000e+00  0.000000e+00  0.000000e+00
   endloop
 endfacet
 facet normal  9.238795e-01  3.826834e-01 -0.000000e+00
   outer loop
     vertex -5.689429e+00 -6.894291e-01 -3.000000e+00
     vertex -5.975000e+00  0.000000e+00  0.000000e+00
     vertex -5.689429e+00 -6.894291e-01  0.000000e+00
   endloop
 endfacet
 facet normal  3.826834e-01  9.238795e-01  0.000000e+00
   outer loop
     vertex -5.000000e+00 -9.750000e-01 -3.000000e+00
     vertex -5.689429e+00 -6.894291e-01 -3.000000e+00
     vertex -5.689429e+00 -6.894291e-01  0.000000e+00
   endloop
 endfacet
 facet normal  3.826834e-01  9.238795e-01 -0.000000e+00
   outer loop
     vertex -5.000000e+00 -9.750000e-01 -3.000000e+00
     vertex -5.689429e+00 -6.894291e-01  0.000000e+00
     vertex -5.000000e+00 -9.750000e-01  0.000000e+00
   endloop
 endfacet
 facet normal -3.826834e-01  9.238795e-01  0.000000e+00
   outer loop
     vertex -5.000000e+00 -9.750000e-01 -3.000000e+00
     vertex -5.000000e+00 -9.750000e-01  0.000000e+00
     vertex -4.310571e+00 -6.894291e-01  0.000000e+00
   endloop
 endfacet
 facet normal -3.826834e-01  9.238795e-01  0.000000e+00
   outer loop
     vertex -4.310571e+00 -6.894291e-01 -3.000000e+00
     vertex -5.000000e+00 -9.750000e-01 -3.000000e+00
     vertex -4.310571e+00 -6.894291e-01  0.000000e+00
   endloop
 endfacet
 facet normal -9.238795e-01  3.826834e-01  0.000000e+00
   outer loop
     vertex -4.310571e+00 -6.894291e-01 -3.000000e+00
     vertex -4.310571e+00 -6.894291e-01  0.000000e+00
     vertex -4.025000e+00  0.000000e+00  0.000000e+00
   endloop
 endfacet
 facet normal -9.238795e-01  3.826834e-01  0.000000e+00
   outer loop
     vertex -4.025000e+00  0.000000e+00 -3.000000e+00
     vertex -4.310571e+00 -6.894291e-01 -3.000000e+00
     vertex -4.025000e+00  0.000000e+00  0.000000e+00
   endloop
 endfacet
 facet normal -9.238795e-01 -3.826834e-01  0.000000e+00
   outer loop
     vertex -4.310571e+00  6.894291e-01 -3.000000e+00
     vertex -4.025000e+00  0.000000e+00 -3.000000e+00
     vertex -4.025000e+00  0.000000e+00  0.000000e+00
   endloop
 endfacet
 facet normal -9.238795e-01 -3.826834e-01  0.000000e+00
   outer loop
     vertex -4.310571e+00  6.894291e-01 -3.000000e+00
     vertex -4.025000e+00  0.000000e+00  0.000000e+00
     vertex -4.310571e+00  6.894291e-01  0.000000e+00
   endloop
 endfacet
 facet normal -3.826834e-01 -9.238795e-01  3.884613e-14
   outer loop
     vertex -4.818934e+00  9.000000e-01 -8.500000e-01
     vertex -4.310571e+00  6.894291e-01  0.000000e+00
     vertex -5.000000e+00  9.750000e-01  0.000000e+00
   endloop
 endfacet
 facet normal -3.826834e-01 -9.238795e-01  0.000000e+00
   outer loop
     vertex -5.000000e+00  9.750000e-01 -8.500000e-01
     vertex -4.818934e+00  9.000000e-01 -8.500000e-01
     vertex -5.000000e+00  9.750000e-01  0.000000e+00
   endloop
 endfacet
 facet normal -3.826834e-01 -9.238795e-01  0.000000e+00
   outer loop
     vertex -4.310571e+00  6.894291e-01 -3.000000e+00
     vertex -4.310571e+00  6.894291e-01  0.000000e+00
     vertex -4.818934e+00  9.000000e-01 -8.500000e-01
   endloop
 endfacet
 facet normal -3.826834e-01 -9.238795e-01  0.000000e+00
   outer loop
     vertex -4.818934e+00  9.000000e-01 -3.000000e+00
     vertex -4.310571e+00  6.894291e-01 -3.000000e+00
     vertex -4.818934e+00  9.000000e-01 -8.500000e-01
   endloop
 endfacet
 facet normal -7.071068e-01 -7.071068e-01  0.000000e+00
   outer loop
     vertex  1.025000e+00  1.775352e+00 -8.500000e-01
     vertex  1.775352e+00  1.025000e+00 -8.500000e-01
     vertex  1.775352e+00  1.025000e+00  0.000000e+00
   endloop
 endfacet
 facet normal -7.071068e-01 -7.071068e-01  0.000000e+00
   outer loop
     vertex  1.025000e+00  1.775352e+00 -8.500000e-01
     vertex  1.775352e+00  1.025000e+00  0.000000e+00
     vertex  1.025000e+00  1.775352e+00  0.000000e+00
   endloop
 endfacet
 facet normal -2.588190e-01 -9.659258e-01  0.000000e+00
   outer loop
     vertex  6.661338e-16  2.050000e+00  0.000000e+00
     vertex  1.025000e+00  1.775352e+00 -8.500000e-01
     vertex  1.025000e+00  1.775352e+00  0.000000e+00
   endloop
 endfacet
 facet normal -2.588190e-01 -9.659258e-01  0.000000e+00
   outer loop
     vertex  6.661338e-16  2.050000e+00 -8.500000e-01
     vertex  1.025000e+00  1.775352e+00 -8.500000e-01
     vertex  6.661338e-16  2.050000e+00  0.000000e+00
   endloop
 endfacet
 facet normal  2.588190e-01 -9.659258e-01  0.000000e+00
   outer loop
     vertex -1.025000e+00  1.775352e+00  0.000000e+00
     vertex  6.661338e-16  2.050000e+00 -8.500000e-01
     vertex  6.661338e-16  2.050000e+00  0.000000e+00
   endloop
 endfacet
 facet normal  2.588190e-01 -9.659258e-01  0.000000e+00
   outer loop
     vertex -1.025000e+00  1.775352e+00 -8.500000e-01
     vertex  6.661338e-16  2.050000e+00 -8.500000e-01
     vertex -1.025000e+00  1.775352e+00  0.000000e+00
   endloop
 endfacet
 facet normal  7.071068e-01 -7.071068e-01  0.000000e+00
   outer loop
     vertex -1.775352e+00  1.025000e+00 -8.500000e-01
     vertex -1.025000e+00  1.775352e+00 -8.500000e-01
     vertex -1.025000e+00  1.775352e+00  0.000000e+00
   endloop
 endfacet
 facet normal  7.071068e-01 -7.071068e-01  0.000000e+00
   outer loop
     vertex -1.775352e+00  1.025000e+00 -8.500000e-01
     vertex -1.025000e+00  1.775352e+00  0.000000e+00
     vertex -1.775352e+00  1.025000e+00  0.000000e+00
   endloop
 endfacet
 facet normal  9.659258e-01 -2.588190e-01  0.000000e+00
   outer loop
     vertex -1.808846e+00  9.000000e-01 -8.500000e-01
     vertex -1.775352e+00  1.025000e+00 -8.500000e-01
     vertex -1.775352e+00  1.025000e+00  0.000000e+00
   endloop
 endfacet
 facet normal  9.659258e-01 -2.588190e-01 -1.107781e-13
   outer loop
     vertex -2.050000e+00  1.221245e-15  0.000000e+00
     vertex -1.808846e+00  9.000000e-01 -8.500000e-01
     vertex -1.775352e+00  1.025000e+00  0.000000e+00
   endloop
 endfacet
 facet normal  9.659258e-01 -2.588190e-01  0.000000e+00
   outer loop
     vertex -2.050000e+00  1.221245e-15 -3.000000e+00
     vertex -1.808846e+00  9.000000e-01 -3.000000e+00
     vertex -1.808846e+00  9.000000e-01 -8.500000e-01
   endloop
 endfacet
 facet normal  9.659258e-01 -2.588190e-01  0.000000e+00
   outer loop
     vertex -2.050000e+00  1.221245e-15 -3.000000e+00
     vertex -1.808846e+00  9.000000e-01 -8.500000e-01
     vertex -2.050000e+00  1.221245e-15  0.000000e+00
   endloop
 endfacet
 facet normal  9.659258e-01  2.588190e-01  0.000000e+00
   outer loop
     vertex -1.775352e+00 -1.025000e+00 -3.000000e+00
     vertex -2.050000e+00  1.221245e-15 -3.000000e+00
     vertex -2.050000e+00  1.221245e-15  0.000000e+00
   endloop
 endfacet
 facet normal  9.659258e-01  2.588190e-01 -0.000000e+00
   outer loop
     vertex -1.775352e+00 -1.025000e+00 -3.000000e+00
     vertex -2.050000e+00  1.221245e-15  0.000000e+00
     vertex -1.775352e+00 -1.025000e+00  0.000000e+00
   endloop
 endfacet
 facet normal  7.071068e-01  7.071068e-01  0.000000e+00
   outer loop
     vertex -1.025000e+00 -1.775352e+00 -3.000000e+00
     vertex -1.775352e+00 -1.025000e+00 -3.000000e+00
     vertex -1.775352e+00 -1.025000e+00  0.000000e+00
   endloop
 endfacet
 facet normal  7.071068e-01  7.071068e-01 -0.000000e+00
   outer loop
     vertex -1.025000e+00 -1.775352e+00 -3.000000e+00
     vertex -1.775352e+00 -1.025000e+00  0.000000e+00
     vertex -1.025000e+00 -1.775352e+00  0.000000e+00
   endloop
 endfacet
 facet normal  2.588190e-01  9.659258e-01  0.000000e+00
   outer loop
     vertex -1.776357e-15 -2.050000e+00 -3.000000e+00
     vertex -1.025000e+00 -1.775352e+00 -3.000000e+00
     vertex -1.025000e+00 -1.775352e+00  0.000000e+00
   endloop
 endfacet
 facet normal  2.588190e-01  9.659258e-01 -0.000000e+00
   outer loop
     vertex -1.776357e-15 -2.050000e+00 -3.000000e+00
     vertex -1.025000e+00 -1.775352e+00  0.000000e+00
     vertex -1.776357e-15 -2.050000e+00  0.000000e+00
   endloop
 endfacet
 facet normal -2.588190e-01  9.659258e-01  0.000000e+00
   outer loop
     vertex  1.025000e+00 -1.775352e+00 -3.000000e+00
     vertex -1.776357e-15 -2.050000e+00 -3.000000e+00
     vertex -1.776357e-15 -2.050000e+00  0.000000e+00
   endloop
 endfacet
 facet normal -2.588190e-01  9.659258e-01  0.000000e+00
   outer loop
     vertex  1.025000e+00 -1.775352e+00 -3.000000e+00
     vertex -1.776357e-15 -2.050000e+00  0.000000e+00
     vertex  1.025000e+00 -1.775352e+00  0.000000e+00
   endloop
 endfacet
 facet normal -7.071068e-01  7.071068e-01  0.000000e+00
   outer loop
     vertex  1.775352e+00 -1.025000e+00 -3.000000e+00
     vertex  1.025000e+00 -1.775352e+00 -3.000000e+00
     vertex  1.025000e+00 -1.775352e+00  0.000000e+00
   endloop
 endfacet
 facet normal -7.071068e-01  7.071068e-01  0.000000e+00
   outer loop
     vertex  1.775352e+00 -1.025000e+00 -3.000000e+00
     vertex  1.025000e+00 -1.775352e+00  0.000000e+00
     vertex  1.775352e+00 -1.025000e+00  0.000000e+00
   endloop
 endfacet
 facet normal -9.659258e-01  2.588190e-01  0.000000e+00
   outer loop
     vertex  1.775352e+00 -1.025000e+00 -3.000000e+00
     vertex  1.775352e+00 -1.025000e+00  0.000000e+00
     vertex  2.050000e+00  0.000000e+00  0.000000e+00
   endloop
 endfacet
 facet normal -9.659258e-01  2.588190e-01  0.000000e+00
   outer loop
     vertex  2.050000e+00  0.000000e+00 -3.000000e+00
     vertex  1.775352e+00 -1.025000e+00 -3.000000e+00
     vertex  2.050000e+00  0.000000e+00  0.000000e+00
   endloop
 endfacet
 facet normal -9.659258e-01 -2.588190e-01 -1.823799e-13
   outer loop
     vertex  1.798610e+00  9.382003e-01 -8.500000e-01
     vertex  2.050000e+00  0.000000e+00  0.000000e+00
     vertex  1.775352e+00  1.025000e+00  0.000000e+00
   endloop
 endfacet
 facet normal -9.659258e-01 -2.588190e-01  0.000000e+00
   outer loop
     vertex  1.775352e+00  1.025000e+00 -8.500000e-01
     vertex  1.798610e+00  9.382003e-01 -8.500000e-01
     vertex  1.775352e+00  1.025000e+00  0.000000e+00
   endloop
 endfacet
 facet normal -9.659258e-01 -2.588190e-01  0.000000e+00
   outer loop
     vertex  2.050000e+00  0.000000e+00 -3.000000e+00
     vertex  2.050000e+00  0.000000e+00  0.000000e+00
     vertex  1.798610e+00  9.382003e-01 -8.500000e-01
   endloop
 endfacet
 facet normal -9.659258e-01 -2.588190e-01  0.000000e+00
   outer loop
     vertex  1.798610e+00  9.382003e-01 -3.000000e+00
     vertex  2.050000e+00  0.000000e+00 -3.000000e+00
     vertex  1.798610e+00  9.382003e-01 -8.500000e-01
   endloop
 endfacet
 facet normal -3.826834e-01 -9.238795e-01  0.000000e+00
   outer loop
     vertex  5.000000e+00  9.750000e-01 -3.000000e+00
     vertex  5.689429e+00  6.894291e-01 -3.000000e+00
     vertex  5.689429e+00  6.894291e-01  0.000000e+00
   endloop
 endfacet
 facet normal -3.826834e-01 -9.238795e-01  0.000000e+00
   outer loop
     vertex  5.000000e+00  9.750000e-01 -3.000000e+00
     vertex  5.689429e+00  6.894291e-01  0.000000e+00
     vertex  5.000000e+00  9.750000e-01  0.000000e+00
   endloop
 endfacet
 facet normal  3.826834e-01 -9.238795e-01  0.000000e+00
   outer loop
     vertex  4.310571e+00  6.894291e-01 -3.000000e+00
     vertex  5.000000e+00  9.750000e-01 -3.000000e+00
     vertex  5.000000e+00  9.750000e-01  0.000000e+00
   endloop
 endfacet
 facet normal  3.826834e-01 -9.238795e-01  0.000000e+00
   outer loop
     vertex  4.310571e+00  6.894291e-01 -3.000000e+00
     vertex  5.000000e+00  9.750000e-01  0.000000e+00
     vertex  4.310571e+00  6.894291e-01  0.000000e+00
   endloop
 endfacet
 facet normal  9.238795e-01 -3.826834e-01  0.000000e+00
   outer loop
     vertex  4.025000e+00  0.000000e+00 -3.000000e+00
     vertex  4.310571e+00  6.894291e-01 -3.000000e+00
     vertex  4.310571e+00  6.894291e-01  0.000000e+00
   endloop
 endfacet
 facet normal  9.238795e-01 -3.826834e-01  0.000000e+00
   outer loop
     vertex  4.025000e+00  0.000000e+00 -3.000000e+00
     vertex  4.310571e+00  6.894291e-01  0.000000e+00
     vertex  4.025000e+00  0.000000e+00  0.000000e+00
   endloop
 endfacet
 facet normal  9.238795e-01  3.826834e-01  0.000000e+00
   outer loop
     vertex  4.310571e+00 -6.894291e-01 -3.000000e+00
     vertex  4.025000e+00  0.000000e+00 -3.000000e+00
     vertex  4.025000e+00  0.000000e+00  0.000000e+00
   endloop
 endfacet
 facet normal  9.238795e-01  3.826834e-01 -0.000000e+00
   outer loop
     vertex  4.310571e+00 -6.894291e-01 -3.000000e+00
     vertex  4.025000e+00  0.000000e+00  0.000000e+00
     vertex  4.310571e+00 -6.894291e-01  0.000000e+00
   endloop
 endfacet
 facet normal  3.826834e-01  9.238795e-01  0.000000e+00
   outer loop
     vertex  5.000000e+00 -9.750000e-01 -3.000000e+00
     vertex  4.310571e+00 -6.894291e-01 -3.000000e+00
     vertex  4.310571e+00 -6.894291e-01  0.000000e+00
   endloop
 endfacet
 facet normal  3.826834e-01  9.238795e-01 -0.000000e+00
   outer loop
     vertex  5.000000e+00 -9.750000e-01 -3.000000e+00
     vertex  4.310571e+00 -6.894291e-01  0.000000e+00
     vertex  5.000000e+00 -9.750000e-01  0.000000e+00
   endloop
 endfacet
 facet normal -3.826834e-01  9.238795e-01  0.000000e+00
   outer loop
     vertex  5.689429e+00 -6.894291e-01 -3.000000e+00
     vertex  5.000000e+00 -9.750000e-01 -3.000000e+00
     vertex  5.000000e+00 -9.750000e-01  0.000000e+00
   endloop
 endfacet
 facet normal -3.826834e-01  9.238795e-01  0.000000e+00
   outer loop
     vertex  5.689429e+00 -6.894291e-01 -3.000000e+00
     vertex  5.000000e+00 -9.750000e-01  0.000000e+00
     vertex  5.689429e+00 -6.894291e-01  0.000000e+00
   endloop
 endfacet
 facet normal -9.238795e-01  3.826834e-01  0.000000e+00
   outer loop
     vertex  5.689429e+00 -6.894291e-01 -3.000000e+00
     vertex  5.689429e+00 -6.894291e-01  0.000000e+00
     vertex  5.975000e+00  0.000000e+00  0.000000e+00
   endloop
 endfacet
 facet normal -9.238795e-01  3.826834e-01  0.000000e+00
   outer loop
     vertex  5.975000e+00  0.000000e+00 -3.000000e+00
     vertex  5.689429e+00 -6.894291e-01 -3.000000e+00
     vertex  5.975000e+00  0.000000e+00  0.000000e+00
   endloop
 endfacet
 facet normal -9.238795e-01 -3.826834e-01  0.000000e+00
   outer loop
     vertex  5.689429e+00  6.894291e-01 -3.000000e+00
     vertex  5.975000e+00  0.000000e+00 -3.000000e+00
     vertex  5.975000e+00  0.000000e+00  0.000000e+00
   endloop
 endfacet
 facet normal -9.238795e-01 -3.826834e-01  0.000000e+00
   outer loop
     vertex  5.689429e+00  6.894291e-01 -3.000000e+00
     vertex  5.975000e+00  0.000000e+00  0.000000e+00
     vertex  5.689429e+00  6.894291e-01  0.000000e+00
   endloop
 endfacet
 facet normal -9.238795e-01  3.826834e-01  0.000000e+00
   outer loop
     vertex -2.160000e+00  2.540000e+00 -8.500000e-01
     vertex -2.643274e+00  1.373274e+00 -8.500000e-01
     vertex -2.643274e+00  1.373274e+00  0.000000e+00
   endloop
 endfacet
 facet normal -9.238795e-01  3.826834e-01  0.000000e+00
   outer loop
     vertex -2.160000e+00  2.540000e+00 -8.500000e-01
     vertex -2.643274e+00  1.373274e+00  0.000000e+00
     vertex -2.160000e+00  2.540000e+00  0.000000e+00
   endloop
 endfacet
 facet normal -9.238795e-01 -3.826834e-01  0.000000e+00
   outer loop
     vertex -2.267696e+00  2.800000e+00 -8.500000e-01
     vertex -2.160000e+00  2.540000e+00 -8.500000e-01
     vertex -2.160000e+00  2.540000e+00  0.000000e+00
   endloop
 endfacet
 facet normal -9.238795e-01 -3.826834e-01  6.221188e-14
   outer loop
     vertex -2.643274e+00  3.706726e+00  0.000000e+00
     vertex -2.267696e+00  2.800000e+00 -8.500000e-01
     vertex -2.160000e+00  2.540000e+00  0.000000e+00
   endloop
 endfacet
 facet normal -9.238795e-01 -3.826834e-01  0.000000e+00
   outer loop
     vertex -2.643274e+00  3.706726e+00 -8.500000e-01
     vertex -2.267696e+00  2.800000e+00 -8.500000e-01
     vertex -2.643274e+00  3.706726e+00  0.000000e+00
   endloop
 endfacet
 facet normal -3.826834e-01 -9.238795e-01  0.000000e+00
   outer loop
     vertex -3.810000e+00  4.190000e+00 -8.500000e-01
     vertex -2.643274e+00  3.706726e+00 -8.500000e-01
     vertex -2.643274e+00  3.706726e+00  0.000000e+00
   endloop
 endfacet
 facet normal -3.826834e-01 -9.238795e-01  0.000000e+00
   outer loop
     vertex -3.810000e+00  4.190000e+00 -8.500000e-01
     vertex -2.643274e+00  3.706726e+00  0.000000e+00
     vertex -3.810000e+00  4.190000e+00  0.000000e+00
   endloop
 endfacet
 facet normal  3.826834e-01 -9.238795e-01  0.000000e+00
   outer loop
     vertex -4.976726e+00  3.706726e+00 -8.500000e-01
     vertex -3.810000e+00  4.190000e+00 -8.500000e-01
     vertex -3.810000e+00  4.190000e+00  0.000000e+00
   endloop
 endfacet
 facet normal  3.826834e-01 -9.238795e-01  0.000000e+00
   outer loop
     vertex -4.976726e+00  3.706726e+00 -8.500000e-01
     vertex -3.810000e+00  4.190000e+00  0.000000e+00
     vertex -4.976726e+00  3.706726e+00  0.000000e+00
   endloop
 endfacet
 facet normal  9.238795e-01 -3.826834e-01  0.000000e+00
   outer loop
     vertex -5.352304e+00  2.800000e+00 -8.500000e-01
     vertex -4.976726e+00  3.706726e+00 -8.500000e-01
     vertex -4.976726e+00  3.706726e+00  0.000000e+00
   endloop
 endfacet
 facet normal  9.238795e-01 -3.826834e-01  6.257388e-14
   outer loop
     vertex -5.352304e+00  2.800000e+00 -8.500000e-01
     vertex -4.976726e+00  3.706726e+00  0.000000e+00
     vertex -5.460000e+00  2.540000e+00  0.000000e+00
   endloop
 endfacet
 facet normal  9.238795e-01 -3.826834e-01  0.000000e+00
   outer loop
     vertex -5.460000e+00  2.540000e+00 -8.500000e-01
     vertex -5.352304e+00  2.800000e+00 -8.500000e-01
     vertex -5.460000e+00  2.540000e+00  0.000000e+00
   endloop
 endfacet
 facet normal  9.238795e-01  3.826834e-01  0.000000e+00
   outer loop
     vertex -4.976726e+00  1.373274e+00 -8.500000e-01
     vertex -5.460000e+00  2.540000e+00 -8.500000e-01
     vertex -5.460000e+00  2.540000e+00  0.000000e+00
   endloop
 endfacet
 facet normal  9.238795e-01  3.826834e-01 -0.000000e+00
   outer loop
     vertex -4.976726e+00  1.373274e+00 -8.500000e-01
     vertex -5.460000e+00  2.540000e+00  0.000000e+00
     vertex -4.976726e+00  1.373274e+00  0.000000e+00
   endloop
 endfacet
 facet normal  3.826834e-01  9.238795e-01  0.000000e+00
   outer loop
     vertex -3.834142e+00  9.000000e-01 -8.500000e-01
     vertex -4.976726e+00  1.373274e+00 -8.500000e-01
     vertex -4.976726e+00  1.373274e+00  0.000000e+00
   endloop
 endfacet
 facet normal  3.826834e-01  9.238795e-01 -1.148324e-13
   outer loop
     vertex -3.834142e+00  9.000000e-01 -8.500000e-01
     vertex -4.976726e+00  1.373274e+00  0.000000e+00
     vertex -3.810000e+00  8.900000e-01  0.000000e+00
   endloop
 endfacet
 facet normal  3.826834e-01  9.238795e-01  0.000000e+00
   outer loop
     vertex -3.810000e+00  8.900000e-01 -3.000000e+00
     vertex -3.834142e+00  9.000000e-01 -3.000000e+00
     vertex -3.834142e+00  9.000000e-01 -8.500000e-01
   endloop
 endfacet
 facet normal  3.826834e-01  9.238795e-01  0.000000e+00
   outer loop
     vertex -3.810000e+00  8.900000e-01  0.000000e+00
     vertex -3.810000e+00  8.900000e-01 -3.000000e+00
     vertex -3.834142e+00  9.000000e-01 -8.500000e-01
   endloop
 endfacet
 facet normal -3.826834e-01  9.238795e-01 -1.148050e-13
   outer loop
     vertex -2.643274e+00  1.373274e+00  0.000000e+00
     vertex -3.785858e+00  9.000000e-01 -8.500000e-01
     vertex -3.810000e+00  8.900000e-01  0.000000e+00
   endloop
 endfacet
 facet normal -3.826834e-01  9.238795e-01  0.000000e+00
   outer loop
     vertex -2.643274e+00  1.373274e+00 -8.500000e-01
     vertex -3.785858e+00  9.000000e-01 -8.500000e-01
     vertex -2.643274e+00  1.373274e+00  0.000000e+00
   endloop
 endfacet
 facet normal -3.826834e-01  9.238795e-01  0.000000e+00
   outer loop
     vertex -3.785858e+00  9.000000e-01 -3.000000e+00
     vertex -3.810000e+00  8.900000e-01 -3.000000e+00
     vertex -3.785858e+00  9.000000e-01 -8.500000e-01
   endloop
 endfacet
 facet normal -3.826834e-01  9.238795e-01  0.000000e+00
   outer loop
     vertex -3.810000e+00  8.900000e-01 -3.000000e+00
     vertex -3.810000e+00  8.900000e-01  0.000000e+00
     vertex -3.785858e+00  9.000000e-01 -8.500000e-01
   endloop
 endfacet
 facet normal  9.238795e-01 -3.826834e-01  0.000000e+00
   outer loop
     vertex  8.900000e-01  5.080000e+00 -8.500000e-01
     vertex  1.373274e+00  6.246726e+00 -8.500000e-01
     vertex  1.373274e+00  6.246726e+00  0.000000e+00
   endloop
 endfacet
 facet normal  9.238795e-01 -3.826834e-01  0.000000e+00
   outer loop
     vertex  8.900000e-01  5.080000e+00 -8.500000e-01
     vertex  1.373274e+00  6.246726e+00  0.000000e+00
     vertex  8.900000e-01  5.080000e+00  0.000000e+00
   endloop
 endfacet
 facet normal  9.238795e-01  3.826834e-01  0.000000e+00
   outer loop
     vertex  1.373274e+00  3.913274e+00  0.000000e+00
     vertex  8.900000e-01  5.080000e+00 -8.500000e-01
     vertex  8.900000e-01  5.080000e+00  0.000000e+00
   endloop
 endfacet
 facet normal  9.238795e-01  3.826834e-01 -0.000000e+00
   outer loop
     vertex  1.373274e+00  3.913274e+00 -8.500000e-01
     vertex  8.900000e-01  5.080000e+00 -8.500000e-01
     vertex  1.373274e+00  3.913274e+00  0.000000e+00
   endloop
 endfacet
 facet normal  3.826834e-01  9.238795e-01  0.000000e+00
   outer loop
     vertex  1.798610e+00  3.737094e+00 -8.500000e-01
     vertex  1.373274e+00  3.913274e+00 -8.500000e-01
     vertex  1.373274e+00  3.913274e+00  0.000000e+00
   endloop
 endfacet
 facet normal  3.826834e-01  9.238795e-01  4.212877e-13
   outer loop
     vertex  1.798610e+00  3.737094e+00 -8.500000e-01
     vertex  1.373274e+00  3.913274e+00  0.000000e+00
     vertex  2.540000e+00  3.430000e+00  0.000000e+00
   endloop
 endfacet
 facet normal  3.826834e-01  9.238795e-01 -0.000000e+00
   outer loop
     vertex  2.540000e+00  3.430000e+00 -8.500000e-01
     vertex  1.798610e+00  3.737094e+00 -8.500000e-01
     vertex  2.540000e+00  3.430000e+00  0.000000e+00
   endloop
 endfacet
 facet normal -3.826834e-01  9.238795e-01  0.000000e+00
   outer loop
     vertex  3.706726e+00  3.913274e+00  0.000000e+00
     vertex  2.540000e+00  3.430000e+00 -8.500000e-01
     vertex  2.540000e+00  3.430000e+00  0.000000e+00
   endloop
 endfacet
 facet normal -3.826834e-01  9.238795e-01  0.000000e+00
   outer loop
     vertex  3.706726e+00  3.913274e+00 -8.500000e-01
     vertex  2.540000e+00  3.430000e+00 -8.500000e-01
     vertex  3.706726e+00  3.913274e+00  0.000000e+00
   endloop
 endfacet
 facet normal -9.238795e-01  3.826834e-01  0.000000e+00
   outer loop
     vertex  4.190000e+00  5.080000e+00 -8.500000e-01
     vertex  3.706726e+00  3.913274e+00 -8.500000e-01
     vertex  3.706726e+00  3.913274e+00  0.000000e+00
   endloop
 endfacet
 facet normal -9.238795e-01  3.826834e-01  0.000000e+00
   outer loop
     vertex  4.190000e+00  5.080000e+00 -8.500000e-01
     vertex  3.706726e+00  3.913274e+00  0.000000e+00
     vertex  4.190000e+00  5.080000e+00  0.000000e+00
   endloop
 endfacet
 facet normal -9.238795e-01 -3.826834e-01  0.000000e+00
   outer loop
     vertex  3.706726e+00  6.246726e+00 -8.500000e-01
     vertex  4.190000e+00  5.080000e+00 -8.500000e-01
     vertex  4.190000e+00  5.080000e+00  0.000000e+00
   endloop
 endfacet
 facet normal -9.238795e-01 -3.826834e-01  0.000000e+00
   outer loop
     vertex  3.706726e+00  6.246726e+00 -8.500000e-01
     vertex  4.190000e+00  5.080000e+00  0.000000e+00
     vertex  3.706726e+00  6.246726e+00  0.000000e+00
   endloop
 endfacet
 facet normal -3.826834e-01 -9.238795e-01  0.000000e+00
   outer loop
     vertex  2.540000e+00  6.730000e+00 -8.500000e-01
     vertex  3.706726e+00  6.246726e+00 -8.500000e-01
     vertex  3.706726e+00  6.246726e+00  0.000000e+00
   endloop
 endfacet
 facet normal -3.826834e-01 -9.238795e-01  0.000000e+00
   outer loop
     vertex  2.540000e+00  6.730000e+00 -8.500000e-01
     vertex  3.706726e+00  6.246726e+00  0.000000e+00
     vertex  2.540000e+00  6.730000e+00  0.000000e+00
   endloop
 endfacet
 facet normal  3.826834e-01 -9.238795e-01  0.000000e+00
   outer loop
     vertex  1.798610e+00  6.422906e+00 -8.500000e-01
     vertex  2.540000e+00  6.730000e+00 -8.500000e-01
     vertex  2.540000e+00  6.730000e+00  0.000000e+00
   endloop
 endfacet
 facet normal  3.826834e-01 -9.238795e-01  4.219600e-13
   outer loop
     vertex  1.798610e+00  6.422906e+00 -8.500000e-01
     vertex  2.540000e+00  6.730000e+00  0.000000e+00
     vertex  1.373274e+00  6.246726e+00  0.000000e+00
   endloop
 endfacet
 facet normal  3.826834e-01 -9.238795e-01  0.000000e+00
   outer loop
     vertex  1.373274e+00  6.246726e+00 -8.500000e-01
     vertex  1.798610e+00  6.422906e+00 -8.500000e-01
     vertex  1.373274e+00  6.246726e+00  0.000000e+00
   endloop
 endfacet
 facet normal  0.000000e+00  0.000000e+00 -1.000000e+00
   outer loop
     vertex  1.798610e+00  7.100000e+00 -3.000000e+00
     vertex -4.375000e+00  7.100000e+00 -3.000000e+00
     vertex -4.375000e+00  8.750000e+00 -3.000000e+00
   endloop
 endfacet
 facet normal  0.000000e+00 -0.000000e+00 -1.000000e+00
   outer loop
     vertex  4.375000e+00  8.750000e+00 -3.000000e+00
     vertex  4.375000e+00  7.100000e+00 -3.000000e+00
     vertex  1.798610e+00  7.100000e+00 -3.000000e+00
   endloop
 endfacet
 facet normal -0.000000e+00  0.000000e+00 -1.000000e+00
   outer loop
     vertex  4.375000e+00  8.750000e+00 -3.000000e+00
     vertex  1.798610e+00  7.100000e+00 -3.000000e+00
     vertex -4.375000e+00  8.750000e+00 -3.000000e+00
   endloop
 endfacet
 facet normal  1.000000e+00  0.000000e+00  0.000000e+00
   outer loop
     vertex  4.375000e+00  7.100000e+00 -8.500000e-01
     vertex  4.375000e+00  7.100000e+00 -3.000000e+00
     vertex  4.375000e+00  8.750000e+00 -3.000000e+00
   endloop
 endfacet
 facet normal  1.000000e+00 -0.000000e+00  0.000000e+00
   outer loop
     vertex  4.375000e+00  7.100000e+00 -8.500000e-01
     vertex  4.375000e+00  8.750000e+00 -3.000000e+00
     vertex  4.375000e+00  8.750000e+00 -8.500000e-01
   endloop
 endfacet
 facet normal -0.000000e+00  0.000000e+00 -1.000000e+00
   outer loop
     vertex  8.750000e+00  8.750000e+00 -8.500000e-01
     vertex  4.375000e+00  7.100000e+00 -8.500000e-01
     vertex  4.375000e+00  8.750000e+00 -8.500000e-01
   endloop
 endfacet
 facet normal  0.000000e+00 -0.000000e+00 -1.000000e+00
   outer loop
     vertex  8.750000e+00  8.750000e+00 -8.500000e-01
     vertex  8.750000e+00  7.100000e+00 -8.500000e-01
     vertex  4.375000e+00  7.100000e+00 -8.500000e-01
   endloop
 endfacet
 facet normal -1.000000e+00  0.000000e+00  0.000000e+00
   outer loop
     vertex -4.375000e+00  7.100000e+00 -8.500000e-01
     vertex -4.375000e+00  8.750000e+00 -3.000000e+00
     vertex -4.375000e+00  7.100000e+00 -3.000000e+00
   endloop
 endfacet
 facet normal -1.000000e+00  0.000000e+00  0.000000e+00
   outer loop
     vertex -4.375000e+00  7.100000e+00 -8.500000e-01
     vertex -4.375000e+00  8.750000e+00 -8.500000e-01
     vertex -4.375000e+00  8.750000e+00 -3.000000e+00
   endloop
 endfacet
 facet normal -0.000000e+00  0.000000e+00 -1.000000e+00
   outer loop
     vertex -4.375000e+00  7.100000e+00 -8.500000e-01
     vertex -8.740000e+00  6.600000e+00 -8.500000e-01
     vertex -8.740000e+00  7.100000e+00 -8.500000e-01
   endloop
 endfacet
 facet normal  0.000000e+00 -0.000000e+00 -1.000000e+00
   outer loop
     vertex -4.375000e+00  7.100000e+00 -8.500000e-01
     vertex -4.375000e+00  6.600000e+00 -8.500000e-01
     vertex -8.740000e+00  6.600000e+00 -8.500000e-01
   endloop
 endfacet
 facet normal -0.000000e+00  0.000000e+00 -1.000000e+00
   outer loop
     vertex -4.976726e+00  3.706726e+00 -8.500000e-01
     vertex -8.740000e+00  2.800000e+00 -8.500000e-01
     vertex -8.740000e+00  6.600000e+00 -8.500000e-01
   endloop
 endfacet
 facet normal  0.000000e+00  0.000000e+00 -1.000000e+00
   outer loop
     vertex -4.976726e+00  3.706726e+00 -8.500000e-01
     vertex -5.352304e+00  2.800000e+00 -8.500000e-01
     vertex -8.740000e+00  2.800000e+00 -8.500000e-01
   endloop
 endfacet
 facet normal  0.000000e+00 -0.000000e+00 -1.000000e+00
   outer loop
     vertex -4.375000e+00  6.600000e+00 -8.500000e-01
     vertex -3.810000e+00  4.190000e+00 -8.500000e-01
     vertex -4.976726e+00  3.706726e+00 -8.500000e-01
   endloop
 endfacet
 facet normal  0.000000e+00  0.000000e+00 -1.000000e+00
   outer loop
     vertex -4.375000e+00  6.600000e+00 -8.500000e-01
     vertex -2.643274e+00  3.706726e+00 -8.500000e-01
     vertex -3.810000e+00  4.190000e+00 -8.500000e-01
   endloop
 endfacet
 facet normal -0.000000e+00  0.000000e+00 -1.000000e+00
   outer loop
     vertex -4.375000e+00  6.600000e+00 -8.500000e-01
     vertex -4.976726e+00  3.706726e+00 -8.500000e-01
     vertex -8.740000e+00  6.600000e+00 -8.500000e-01
   endloop
 endfacet
 facet normal  0.000000e+00 -0.000000e+00 -1.000000e+00
   outer loop
     vertex  1.373274e+00  3.913274e+00 -8.500000e-01
     vertex  1.798610e+00  2.800000e+00 -8.500000e-01
     vertex -2.267696e+00  2.800000e+00 -8.500000e-01
   endloop
 endfacet
 facet normal -0.000000e+00 -0.000000e+00 -1.000000e+00
   outer loop
     vertex  1.798610e+00  3.737094e+00 -8.500000e-01
     vertex  1.798610e+00  2.800000e+00 -8.500000e-01
     vertex  1.373274e+00  3.913274e+00 -8.500000e-01
   endloop
 endfacet
 facet normal  0.000000e+00  0.000000e+00 -1.000000e+00
   outer loop
     vertex  8.900000e-01  5.080000e+00 -8.500000e-01
     vertex -2.267696e+00  2.800000e+00 -8.500000e-01
     vertex -2.643274e+00  3.706726e+00 -8.500000e-01
   endloop
 endfacet
 facet normal -0.000000e+00  0.000000e+00 -1.000000e+00
   outer loop
     vertex  8.900000e-01  5.080000e+00 -8.500000e-01
     vertex -2.643274e+00  3.706726e+00 -8.500000e-01
     vertex -4.375000e+00  6.600000e+00 -8.500000e-01
   endloop
 endfacet
 facet normal  0.000000e+00 -0.000000e+00 -1.000000e+00
   outer loop
     vertex  8.900000e-01  5.080000e+00 -8.500000e-01
     vertex  1.373274e+00  3.913274e+00 -8.500000e-01
     vertex -2.267696e+00  2.800000e+00 -8.500000e-01
   endloop
 endfacet
 facet normal  0.000000e+00  0.000000e+00 -1.000000e+00
   outer loop
     vertex  1.373274e+00  6.246726e+00 -8.500000e-01
     vertex -4.375000e+00  6.600000e+00 -8.500000e-01
     vertex -4.375000e+00  7.100000e+00 -8.500000e-01
   endloop
 endfacet
 facet normal -0.000000e+00  0.000000e+00 -1.000000e+00
   outer loop
     vertex  1.373274e+00  6.246726e+00 -8.500000e-01
     vertex  8.900000e-01  5.080000e+00 -8.500000e-01
     vertex -4.375000e+00  6.600000e+00 -8.500000e-01
   endloop
 endfacet
 facet normal  0.000000e+00 -0.000000e+00 -1.000000e+00
   outer loop
     vertex  1.798610e+00  7.100000e+00 -8.500000e-01
     vertex  1.798610e+00  6.422906e+00 -8.500000e-01
     vertex  1.373274e+00  6.246726e+00 -8.500000e-01
   endloop
 endfacet
 facet normal -0.000000e+00  0.000000e+00 -1.000000e+00
   outer loop
     vertex  1.798610e+00  7.100000e+00 -8.500000e-01
     vertex  1.373274e+00  6.246726e+00 -8.500000e-01
     vertex -4.375000e+00  7.100000e+00 -8.500000e-01
   endloop
 endfacet
 facet normal  0.000000e+00  1.000000e+00  0.000000e+00
   outer loop
     vertex -3.834142e+00  9.000000e-01 -8.500000e-01
     vertex -3.834142e+00  9.000000e-01 -3.000000e+00
     vertex -4.818934e+00  9.000000e-01 -3.000000e+00
   endloop
 endfacet
 facet normal  0.000000e+00  1.000000e+00  0.000000e+00
   outer loop
     vertex -3.834142e+00  9.000000e-01 -8.500000e-01
     vertex -4.818934e+00  9.000000e-01 -3.000000e+00
     vertex -4.818934e+00  9.000000e-01 -8.500000e-01
   endloop
 endfacet
 facet normal  0.000000e+00  1.000000e+00  0.000000e+00
   outer loop
     vertex -1.808846e+00  9.000000e-01 -8.500000e-01
     vertex -1.808846e+00  9.000000e-01 -3.000000e+00
     vertex -3.785858e+00  9.000000e-01 -3.000000e+00
   endloop
 endfacet
 facet normal  0.000000e+00  1.000000e+00  0.000000e+00
   outer loop
     vertex -1.808846e+00  9.000000e-01 -8.500000e-01
     vertex -3.785858e+00  9.000000e-01 -3.000000e+00
     vertex -3.785858e+00  9.000000e-01 -8.500000e-01
   endloop
 endfacet
 facet normal -1.000000e+00  0.000000e+00  0.000000e+00
   outer loop
     vertex  1.798610e+00  9.382003e-01 -8.500000e-01
     vertex  1.798610e+00  2.800000e+00 -3.000000e+00
     vertex  1.798610e+00  9.382003e-01 -3.000000e+00
   endloop
 endfacet
 facet normal -1.000000e+00  0.000000e+00  0.000000e+00
   outer loop
     vertex  1.798610e+00  9.382003e-01 -8.500000e-01
     vertex  1.798610e+00  2.800000e+00 -8.500000e-01
     vertex  1.798610e+00  2.800000e+00 -3.000000e+00
   endloop
 endfacet
 facet normal  0.000000e+00  1.000000e+00  0.000000e+00
   outer loop
     vertex  8.750000e+00  2.800000e+00 -8.500000e-01
     vertex  8.750000e+00  2.800000e+00 -3.000000e+00
     vertex  1.798610e+00  2.800000e+00 -3.000000e+00
   endloop
 endfacet
 facet normal  0.000000e+00  1.000000e+00  0.000000e+00
   outer loop
     vertex  8.750000e+00  2.800000e+00 -8.500000e-01
     vertex  1.798610e+00  2.800000e+00 -3.000000e+00
     vertex  1.798610e+00  2.800000e+00 -8.500000e-01
   endloop
 endfacet
 facet normal -0.000000e+00  0.000000e+00 -1.000000e+00
   outer loop
     vertex  8.750000e+00  7.100000e+00 -8.500000e-01
     vertex  4.375000e+00  6.600000e+00 -8.500000e-01
     vertex  4.375000e+00  7.100000e+00 -8.500000e-01
   endloop
 endfacet
 facet normal  0.000000e+00 -0.000000e+00 -1.000000e+00
   outer loop
     vertex  8.750000e+00  7.100000e+00 -8.500000e-01
     vertex  8.750000e+00  6.600000e+00 -8.500000e-01
     vertex  4.375000e+00  6.600000e+00 -8.500000e-01
   endloop
 endfacet
 facet normal -0.000000e+00  0.000000e+00 -1.000000e+00
   outer loop
     vertex  2.540000e+00  3.430000e+00 -8.500000e-01
     vertex  1.798610e+00  2.800000e+00 -8.500000e-01
     vertex  1.798610e+00  3.737094e+00 -8.500000e-01
   endloop
 endfacet
 facet normal  0.000000e+00  0.000000e+00 -1.000000e+00
   outer loop
     vertex  3.706726e+00  3.913274e+00 -8.500000e-01
     vertex  1.798610e+00  2.800000e+00 -8.500000e-01
     vertex  2.540000e+00  3.430000e+00 -8.500000e-01
   endloop
 endfacet
 facet normal -0.000000e+00  0.000000e+00 -1.000000e+00
   outer loop
     vertex  2.540000e+00  6.730000e+00 -8.500000e-01
     vertex  1.798610e+00  6.422906e+00 -8.500000e-01
     vertex  1.798610e+00  7.100000e+00 -8.500000e-01
   endloop
 endfacet
 facet normal  0.000000e+00  0.000000e+00 -1.000000e+00
   outer loop
     vertex  4.375000e+00  6.600000e+00 -8.500000e-01
     vertex  4.190000e+00  5.080000e+00 -8.500000e-01
     vertex  3.706726e+00  6.246726e+00 -8.500000e-01
   endloop
 endfacet
 facet normal  0.000000e+00  0.000000e+00 -1.000000e+00
   outer loop
     vertex  4.375000e+00  7.100000e+00 -8.500000e-01
     vertex  3.706726e+00  6.246726e+00 -8.500000e-01
     vertex  2.540000e+00  6.730000e+00 -8.500000e-01
   endloop
 endfacet
 facet normal -0.000000e+00  0.000000e+00 -1.000000e+00
   outer loop
     vertex  4.375000e+00  7.100000e+00 -8.500000e-01
     vertex  2.540000e+00  6.730000e+00 -8.500000e-01
     vertex  1.798610e+00  7.100000e+00 -8.500000e-01
   endloop
 endfacet
 facet normal  0.000000e+00 -0.000000e+00 -1.000000e+00
   outer loop
     vertex  4.375000e+00  7.100000e+00 -8.500000e-01
     vertex  4.375000e+00  6.600000e+00 -8.500000e-01
     vertex  3.706726e+00  6.246726e+00 -8.500000e-01
   endloop
 endfacet
 facet normal  0.000000e+00  0.000000e+00 -1.000000e+00
   outer loop
     vertex  8.750000e+00  2.800000e+00 -8.500000e-01
     vertex  3.706726e+00  3.913274e+00 -8.500000e-01
     vertex  4.190000e+00  5.080000e+00 -8.500000e-01
   endloop
 endfacet
 facet normal  0.000000e+00  0.000000e+00 -1.000000e+00
   outer loop
     vertex  8.750000e+00  2.800000e+00 -8.500000e-01
     vertex  1.798610e+00  2.800000e+00 -8.500000e-01
     vertex  3.706726e+00  3.913274e+00 -8.500000e-01
   endloop
 endfacet
 facet normal  0.000000e+00 -0.000000e+00 -1.000000e+00
   outer loop
     vertex  8.750000e+00  6.600000e+00 -8.500000e-01
     vertex  8.750000e+00  2.800000e+00 -8.500000e-01
     vertex  4.190000e+00  5.080000e+00 -8.500000e-01
   endloop
 endfacet
 facet normal -0.000000e+00  0.000000e+00 -1.000000e+00
   outer loop
     vertex  8.750000e+00  6.600000e+00 -8.500000e-01
     vertex  4.190000e+00  5.080000e+00 -8.500000e-01
     vertex  4.375000e+00  6.600000e+00 -8.500000e-01
   endloop
 endfacet
 facet normal  0.000000e+00  0.000000e+00 -1.000000e+00
   outer loop
     vertex -1.808846e+00  9.000000e-01 -8.500000e-01
     vertex -3.785858e+00  9.000000e-01 -8.500000e-01
     vertex -2.643274e+00  1.373274e+00 -8.500000e-01
   endloop
 endfacet
 facet normal -0.000000e+00  0.000000e+00 -1.000000e+00
   outer loop
     vertex -1.775352e+00  1.025000e+00 -8.500000e-01
     vertex -1.808846e+00  9.000000e-01 -8.500000e-01
     vertex -2.643274e+00  1.373274e+00 -8.500000e-01
   endloop
 endfacet
 facet normal  0.000000e+00 -0.000000e+00 -1.000000e+00
   outer loop
     vertex -2.160000e+00  2.540000e+00 -8.500000e-01
     vertex -1.775352e+00  1.025000e+00 -8.500000e-01
     vertex -2.643274e+00  1.373274e+00 -8.500000e-01
   endloop
 endfacet
 facet normal  0.000000e+00  0.000000e+00 -1.000000e+00
   outer loop
     vertex -1.025000e+00  1.775352e+00 -8.500000e-01
     vertex -2.160000e+00  2.540000e+00 -8.500000e-01
     vertex -2.267696e+00  2.800000e+00 -8.500000e-01
   endloop
 endfacet
 facet normal -0.000000e+00  0.000000e+00 -1.000000e+00
   outer loop
     vertex -1.025000e+00  1.775352e+00 -8.500000e-01
     vertex -1.775352e+00  1.025000e+00 -8.500000e-01
     vertex -2.160000e+00  2.540000e+00 -8.500000e-01
   endloop
 endfacet
 facet normal -0.000000e+00  0.000000e+00 -1.000000e+00
   outer loop
     vertex  6.661338e-16  2.050000e+00 -8.500000e-01
     vertex -1.025000e+00  1.775352e+00 -8.500000e-01
     vertex -2.267696e+00  2.800000e+00 -8.500000e-01
   endloop
 endfacet
 facet normal  0.000000e+00  0.000000e+00 -1.000000e+00
   outer loop
     vertex  1.798610e+00  2.800000e+00 -8.500000e-01
     vertex  1.025000e+00  1.775352e+00 -8.500000e-01
     vertex  6.661338e-16  2.050000e+00 -8.500000e-01
   endloop
 endfacet
 facet normal  0.000000e+00  0.000000e+00 -1.000000e+00
   outer loop
     vertex  1.798610e+00  2.800000e+00 -8.500000e-01
     vertex  1.775352e+00  1.025000e+00 -8.500000e-01
     vertex  1.025000e+00  1.775352e+00 -8.500000e-01
   endloop
 endfacet
 facet normal  0.000000e+00 -0.000000e+00 -1.000000e+00
   outer loop
     vertex  1.798610e+00  2.800000e+00 -8.500000e-01
     vertex  1.798610e+00  9.382003e-01 -8.500000e-01
     vertex  1.775352e+00  1.025000e+00 -8.500000e-01
   endloop
 endfacet
 facet normal -0.000000e+00  0.000000e+00 -1.000000e+00
   outer loop
     vertex  1.798610e+00  2.800000e+00 -8.500000e-01
     vertex  6.661338e-16  2.050000e+00 -8.500000e-01
     vertex -2.267696e+00  2.800000e+00 -8.500000e-01
   endloop
 endfacet
 facet normal  0.000000e+00 -1.000000e+00 -0.000000e+00
   outer loop
     vertex  4.375000e+00  7.100000e+00 -8.500000e-01
     vertex  1.798610e+00  7.100000e+00 -3.000000e+00
     vertex  4.375000e+00  7.100000e+00 -3.000000e+00
   endloop
 endfacet
 facet normal -0.000000e+00 -1.000000e+00  0.000000e+00
   outer loop
     vertex  4.375000e+00  7.100000e+00 -8.500000e-01
     vertex  1.798610e+00  7.100000e+00 -8.500000e-01
     vertex  1.798610e+00  7.100000e+00 -3.000000e+00
   endloop
 endfacet
 facet normal  0.000000e+00 -1.000000e+00 -0.000000e+00
   outer loop
     vertex  1.798610e+00  7.100000e+00 -8.500000e-01
     vertex -4.375000e+00  7.100000e+00 -3.000000e+00
     vertex  1.798610e+00  7.100000e+00 -3.000000e+00
   endloop
 endfacet
 facet normal -0.000000e+00 -1.000000e+00  0.000000e+00
   outer loop
     vertex  1.798610e+00  7.100000e+00 -8.500000e-01
     vertex -4.375000e+00  7.100000e+00 -8.500000e-01
     vertex -4.375000e+00  7.100000e+00 -3.000000e+00
   endloop
 endfacet
endsolid
